<?xml version="1.0" encoding="UTF-8" standalone="no"?>
<!-- Created with Inkscape (http://www.inkscape.org/) -->

<svg
   width="400"
   height="200"
   viewBox="0 0 105.83333 52.916667"
   version="1.1"
   id="svg1"
   xml:space="preserve"
   xmlns:xlink="http://www.w3.org/1999/xlink"
   xmlns="http://www.w3.org/2000/svg"
   xmlns:svg="http://www.w3.org/2000/svg"><defs
     id="defs1"><linearGradient
       id="linearGradient51"><stop
         style="stop-color:#5d5d5d;stop-opacity:1;"
         offset="0.40775195"
         id="stop51" /><stop
         style="stop-color:#bbbbbb;stop-opacity:1;"
         offset="0.43488371"
         id="stop53" /><stop
         style="stop-color:#5c5c5c;stop-opacity:1;"
         offset="0.4864341"
         id="stop54" /><stop
         style="stop-color:#acacac;stop-opacity:1;"
         offset="0.54166669"
         id="stop55" /><stop
         style="stop-color:#515151;stop-opacity:1;"
         offset="0.59224808"
         id="stop52" /></linearGradient><linearGradient
       id="linearGradient39"><stop
         style="stop-color:#636363;stop-opacity:1;"
         offset="0"
         id="stop39" /><stop
         style="stop-color:#f4f4f4;stop-opacity:1;"
         offset="0.1900533"
         id="stop41" /><stop
         style="stop-color:#686868;stop-opacity:1;"
         offset="0.38898757"
         id="stop42" /><stop
         style="stop-color:#e6e6e6;stop-opacity:1;"
         offset="0.61989337"
         id="stop43" /><stop
         style="stop-color:#616161;stop-opacity:1;"
         offset="0.88809949"
         id="stop40" /></linearGradient><linearGradient
       xlink:href="#linearGradient39"
       id="linearGradient40"
       x1="23.251369"
       y1="30.578032"
       x2="34.25441"
       y2="30.578032"
       gradientUnits="userSpaceOnUse"
       gradientTransform="matrix(1.5163443,0,0,1.5163443,-25.054391,-13.949799)" /><linearGradient
       xlink:href="#linearGradient39"
       id="linearGradient48"
       gradientUnits="userSpaceOnUse"
       x1="23.251369"
       y1="30.578032"
       x2="34.25441"
       y2="30.578032"
       gradientTransform="matrix(1.5163443,0,0,1.5163443,-2.5246988,-24.781382)" /><linearGradient
       xlink:href="#linearGradient39"
       id="linearGradient49"
       gradientUnits="userSpaceOnUse"
       gradientTransform="matrix(1.5163443,0,0,1.5163443,20.11331,-24.781382)"
       x1="23.251369"
       y1="30.578032"
       x2="34.25441"
       y2="30.578032" /><linearGradient
       xlink:href="#linearGradient39"
       id="linearGradient50"
       gradientUnits="userSpaceOnUse"
       gradientTransform="matrix(1.5163443,0,0,1.5163443,42.643002,-13.949799)"
       x1="23.251369"
       y1="30.578032"
       x2="34.25441"
       y2="30.578032" /><linearGradient
       xlink:href="#linearGradient51"
       id="linearGradient52"
       x1="51.112648"
       y1="70.318695"
       x2="51.112648"
       y2="2.9615724"
       gradientUnits="userSpaceOnUse"
       gradientTransform="matrix(1.5163443,0,0,1.5163443,-25.054391,-13.949799)" /></defs><g
     id="layer1"><path
       id="rect5"
       style="display:none;fill:url(#linearGradient52);stroke-width:2.94394"
       d="m 10.615529,31.31208 c -0.263709,0 -0.475641,0.212715 -0.475641,0.476424 v 7.130692 H 4.225331 c -0.068766,0 -0.1245919,0.05504 -0.1245919,0.123809 v 1.10173 H 1.4490623 c -0.037363,0 -0.067389,0.03005 -0.067389,0.06739 v 2.780187 c 0,0.03736 0.030027,0.06739 0.067389,0.06739 h 2.6516768 v 1.101732 c 0,0.06877 0.055826,0.123807 0.1245919,0.123807 h 5.914557 v 7.130693 c 0,0.263708 0.211932,0.476425 0.475641,0.476425 H 14.6573 c 0.263708,0 0.475641,-0.212717 0.475641,-0.476425 v -19.62743 c 0,-0.263709 -0.211933,-0.476424 -0.475641,-0.476424 z m 79.627117,0 c -0.263708,0 -0.475641,0.212715 -0.475641,0.476424 v 19.627428 c 0,0.263708 0.211933,0.476425 0.475641,0.476425 h 4.041771 c 0.263709,0 0.475641,-0.212717 0.475641,-0.476425 v -7.130693 h 5.914562 c 0.0688,0 0.12459,-0.05504 0.12459,-0.123807 v -1.101731 h 2.65168 c 0.0374,0 0.0674,-0.03005 0.0674,-0.06739 v -2.780187 c 0,-0.03736 -0.0301,-0.06739 -0.0674,-0.06739 h -2.65168 v -1.10173 c 0,-0.06877 -0.0558,-0.123808 -0.12459,-0.123808 H 94.760058 V 31.78851 c 0,-0.263709 -0.211932,-0.476424 -0.475641,-0.476424 z m -67.776062,0.0141 c -0.263709,0 -0.475641,0.212714 -0.475641,0.476423 v 19.627428 c 0,0.26371 0.211932,0.476426 0.475641,0.476426 h 4.041771 c 0.263709,0 0.475641,-0.212716 0.475641,-0.476426 v -7.13069 h 5.729629 v 7.130692 c 0,0.26371 0.211932,0.476426 0.47564,0.476426 h 4.041771 c 0.26371,0 0.475642,-0.212716 0.475642,-0.476426 V 31.802608 c 0,-0.263709 -0.211932,-0.476423 -0.475642,-0.476423 h -4.041771 c -0.263708,0 -0.47564,0.212714 -0.47564,0.476423 v 7.130694 h -5.729629 v -7.130694 c 0,-0.263709 -0.211932,-0.476423 -0.475641,-0.476423 z m 22.518102,0 c -0.263709,0 -0.475641,0.212714 -0.475641,0.476423 v 19.627428 c 0,0.26371 0.211932,0.476426 0.475641,0.476426 h 4.041771 c 0.263708,0 0.47564,-0.212716 0.47564,-0.476426 v -7.13069 h 5.72963 v 7.130692 c 0,0.26371 0.211932,0.476426 0.475641,0.476426 h 4.04177 c 0.263709,0 0.475641,-0.212716 0.475641,-0.476426 V 31.802608 c 0,-0.263709 -0.211932,-0.476423 -0.475641,-0.476423 h -4.04177 c -0.263709,0 -0.475641,0.212714 -0.475641,0.476423 v 7.130694 h -5.72963 v -7.130694 c 0,-0.263709 -0.211932,-0.476423 -0.47564,-0.476423 z m 22.670118,0 c -0.263709,0 -0.475641,0.212714 -0.475641,0.476423 v 19.627428 c 0,0.26371 0.211932,0.476426 0.475641,0.476426 h 4.041772 c 0.263709,0 0.475641,-0.212716 0.475641,-0.476426 v -7.13069 h 5.729628 v 7.130692 c 0,0.26371 0.211932,0.476426 0.47564,0.476426 h 4.041773 c 0.263708,0 0.47564,-0.212716 0.47564,-0.476426 V 31.802608 c 0,-0.263709 -0.211932,-0.476423 -0.47564,-0.476423 h -4.041773 c -0.263708,0 -0.47564,0.212714 -0.47564,0.476423 v 7.130694 h -5.729628 v -7.130694 c 0,-0.263709 -0.211932,-0.476423 -0.475641,-0.476423 z m -35.091628,8.249662 c 0.106077,0 0.191979,0.12132 0.191979,0.271908 v 3.400791 c 0,0.150587 -0.0859,0.271907 -0.191979,0.271907 -0.106079,0 -0.191198,-0.12132 -0.191198,-0.271907 V 39.84775 c 0,-0.150588 0.08512,-0.271908 0.191198,-0.271908 z m 22.518101,0 c 0.106083,0 0.191979,0.121322 0.191979,0.271908 v 3.400791 c 0,0.150588 -0.0859,0.271907 -0.191979,0.271907 -0.106084,0 -0.191196,-0.121323 -0.191196,-0.271907 V 39.84775 c 0,-0.150588 0.08511,-0.271908 0.191196,-0.271908 z m 22.670119,0 c 0.106084,0 0.19198,0.121322 0.19198,0.271908 v 3.400791 c 0,0.150588 -0.0859,0.271907 -0.19198,0.271907 -0.106084,0 -0.191198,-0.121323 -0.191198,-0.271907 V 39.84775 c 0,-0.150588 0.08512,-0.271908 0.191198,-0.271908 z m 17.170865,0.01097 c 0.103429,0 0.187278,0.120534 0.187278,0.271123 v 3.400792 c 0,0.150588 -0.08386,0.271906 -0.187278,0.271906 -0.10343,0 -0.186496,-0.121322 -0.186496,-0.271906 v -3.400792 c 0,-0.150588 0.08307,-0.271123 0.186496,-0.271123 z m -67.776062,0.01332 c 0.103426,0 0.186496,0.12132 0.186496,0.271907 v 3.400791 c 0,0.150589 -0.08307,0.271908 -0.186496,0.271908 -0.103426,0 -0.186495,-0.121319 -0.186495,-0.271908 v -3.400791 c 0,-0.150587 0.08306,-0.271907 0.186495,-0.271907 z m 22.518102,0 c 0.10343,0 0.186495,0.121323 0.186495,0.271907 v 3.400791 c 0,0.150589 -0.08306,0.271908 -0.186495,0.271908 -0.10343,0 -0.186496,-0.121323 -0.186496,-0.271908 v -3.400791 c 0,-0.150589 0.08306,-0.271907 0.186496,-0.271907 z m 22.670119,0 c 0.10343,0 0.186495,0.121323 0.186495,0.271907 v 3.400791 c 0,0.150589 -0.08306,0.271908 -0.186495,0.271908 -0.10343,0 -0.186496,-0.121323 -0.186496,-0.271908 v -3.400791 c 0,-0.150589 0.08307,-0.271907 0.186496,-0.271907 z m -62.3567352,0.07366 c 0.1034302,0 0.1864932,0.121323 0.1864932,0.271907 v 3.400792 c 0,0.150588 -0.08306,0.271124 -0.1864932,0.271124 -0.1034298,0 -0.1872792,-0.120535 -0.1872792,-0.271124 v -3.400792 c 0,-0.150588 0.083855,-0.271907 0.1872792,-0.271907 z" /><path
       id="path24"
       style="display:inline;fill:url(#linearGradient40);stroke-width:3.19509"
       d="m 11.342768,12.958056 c -0.63069,0 -1.138561,0.436509 -1.138561,0.97949 v 0.719339 h 16.680337 v -0.719339 c 0,-0.542981 -0.507871,-0.97949 -1.13856,-0.97949 z m -1.138561,2.464399 v 1.004564 h 16.680337 v -1.004564 z m 0,1.770135 v 0.913669 H 26.884544 V 17.19259 Z m 0,1.679239 v 6.988078 a 8.3425444,3.1930082 0 0 0 -0.0015,0.0079 8.3425444,3.1930082 0 0 0 0.0015,0.01016 v 0.08777 c 0,0.107146 0.02453,0.208466 0.06112,0.304819 a 8.3425444,3.1930082 0 0 0 0.01258,0.03449 c 0.0138,0.03225 0.02952,0.06349 0.04702,0.09403 a 8.3425444,3.1930082 0 0 0 6.419974,2.59526 v 13.324992 c -0.56744,0.09197 -0.998298,0.580401 -0.998298,1.174607 v 6.195082 c 0,0.606413 0.448849,1.103049 1.033559,1.18009 0.131861,0.577536 0.644526,1.006917 1.263151,1.006917 h 1.003 c 0.618625,0 1.131296,-0.429381 1.263151,-1.006917 0.58471,-0.07705 1.033559,-0.573677 1.033559,-1.18009 v -6.195082 c 0,-0.594206 -0.430858,-1.08264 -0.998298,-1.174607 V 28.995089 a 8.3425444,3.1930082 0 0 0 6.4474,-2.642274 8.3425444,3.1930082 0 0 0 0.0032,-0.0047 c 4.15e-4,-8.45e-4 3.73e-4,-0.0014 7.85e-4,-0.0024 a 8.3425444,3.1930082 0 0 0 0.01724,-0.04702 c 0.0437,-0.104279 0.07131,-0.215451 0.07131,-0.333027 v -0.04702 a 8.3425444,3.1930082 0 0 0 0.0024,-0.01259 v -0.004 a 8.3425444,3.1930082 0 0 0 -0.0024,-0.06033 v -6.969925 z m 8.35153,3.938337 a 2.0038428,2.0038428 0 0 1 1.992677,2.013833 v 0.0031 a 2.0038428,2.0038428 0 0 1 -2.0154,1.991108 2.0038428,2.0038428 0 0 1 -1.991893,-2.015401 2.0038428,2.0038428 0 0 1 2.014616,-1.992674 z" /><path
       id="path48"
       style="display:none;fill:url(#linearGradient48);stroke-width:3.19509"
       d="m 33.872462,2.1264714 c -0.63069,0 -1.138561,0.4365101 -1.138561,0.9794903 V 3.8253003 H 49.414237 V 3.1059617 c 0,-0.5429802 -0.507871,-0.9794903 -1.138559,-0.9794903 z M 32.733901,4.5908706 V 5.5954351 H 49.414237 V 4.5908706 Z m 0,1.7701349 V 7.2746742 H 49.414237 V 6.3610055 Z m 0,1.6792391 v 6.9880794 a 8.3425444,3.1930082 0 0 0 -0.0015,0.0079 8.3425444,3.1930082 0 0 0 0.0015,0.01016 v 0.08777 c 0,0.107145 0.02454,0.208465 0.06113,0.304818 a 8.3425444,3.1930082 0 0 0 0.01259,0.03449 c 0.0138,0.03225 0.02953,0.06349 0.04702,0.09403 a 8.3425444,3.1930082 0 0 0 6.419974,2.595259 v 13.324993 c -0.567439,0.09196 -0.998297,0.5804 -0.998297,1.174605 v 6.195082 c 0,0.606414 0.448849,1.10305 1.033558,1.180091 0.131862,0.577536 0.644527,1.006918 1.263152,1.006918 h 1.003 c 0.618624,0 1.131296,-0.429382 1.263151,-1.006918 0.584709,-0.07705 1.033558,-0.573677 1.033558,-1.180091 v -6.195082 c 0,-0.594205 -0.430857,-1.08264 -0.998297,-1.174605 V 18.163505 a 8.3425444,3.1930082 0 0 0 6.4474,-2.642274 8.3425444,3.1930082 0 0 0 0.0031,-0.0047 c 4.14e-4,-8.44e-4 3.73e-4,-0.0014 7.85e-4,-0.0024 a 8.3425444,3.1930082 0 0 0 0.01724,-0.04703 c 0.0437,-0.104279 0.07131,-0.215449 0.07131,-0.333027 v -0.04702 a 8.3425444,3.1930082 0 0 0 0.0024,-0.01259 v -0.004 a 8.3425444,3.1930082 0 0 0 -0.0024,-0.06034 V 8.0402446 Z m 8.35153,3.9383374 a 2.0038428,2.0038428 0 0 1 1.992676,2.013832 v 0.0031 a 2.0038428,2.0038428 0 0 1 -2.0154,1.991109 2.0038428,2.0038428 0 0 1 -1.991893,-2.0154 2.0038428,2.0038428 0 0 1 2.014617,-1.992676 z" /><path
       id="path49"
       style="display:none;fill:url(#linearGradient49);stroke-width:3.19509"
       d="m 56.51047,2.1264714 c -0.630689,0 -1.138559,0.4365101 -1.138559,0.9794903 V 3.8253003 H 72.052246 V 3.1059617 c 0,-0.5429802 -0.507871,-0.9794903 -1.138559,-0.9794903 z M 55.371911,4.5908706 V 5.5954351 H 72.052246 V 4.5908706 Z m 0,1.7701349 V 7.2746742 H 72.052246 V 6.3610055 Z m 0,1.6792391 v 6.9880794 a 8.3425444,3.1930082 0 0 0 -0.0015,0.0079 8.3425444,3.1930082 0 0 0 0.0015,0.01016 v 0.08777 c 0,0.107145 0.02454,0.208465 0.06113,0.304818 a 8.3425444,3.1930082 0 0 0 0.01259,0.03449 c 0.0138,0.03225 0.02953,0.06349 0.04702,0.09403 a 8.3425444,3.1930082 0 0 0 6.419975,2.595259 v 13.324993 c -0.567441,0.09196 -0.998298,0.5804 -0.998298,1.174605 v 6.195082 c 0,0.606414 0.448849,1.10305 1.033559,1.180091 0.131861,0.577536 0.644527,1.006918 1.263151,1.006918 h 1.002999 c 0.618625,0 1.131296,-0.429382 1.263152,-1.006918 0.58471,-0.07705 1.033558,-0.573677 1.033558,-1.180091 v -6.195082 c 0,-0.594205 -0.430857,-1.08264 -0.998297,-1.174605 V 18.163505 a 8.3425444,3.1930082 0 0 0 6.4474,-2.642274 8.3425444,3.1930082 0 0 0 0.0032,-0.0047 c 4.15e-4,-8.44e-4 3.73e-4,-0.0014 7.84e-4,-0.0024 a 8.3425444,3.1930082 0 0 0 0.01724,-0.04703 c 0.0437,-0.104279 0.07131,-0.215449 0.07131,-0.333027 v -0.04702 a 8.3425444,3.1930082 0 0 0 0.0024,-0.01259 v -0.004 a 8.3425444,3.1930082 0 0 0 -0.0024,-0.06034 V 8.0402446 Z m 8.351529,3.9383374 a 2.0038428,2.0038428 0 0 1 1.992677,2.013832 v 0.0031 a 2.0038428,2.0038428 0 0 1 -2.015401,1.991109 2.0038428,2.0038428 0 0 1 -1.991893,-2.0154 2.0038428,2.0038428 0 0 1 2.014617,-1.992676 z" /><path
       id="path50"
       style="display:inline;fill:url(#linearGradient50);stroke-width:3.19509"
       d="m 79.040164,12.958056 c -0.63069,0 -1.138561,0.436509 -1.138561,0.97949 v 0.719339 H 94.58194 v -0.719339 c 0,-0.542981 -0.507871,-0.97949 -1.138559,-0.97949 z m -1.138561,2.464399 v 1.004564 H 94.58194 v -1.004564 z m 0,1.770135 v 0.913669 H 94.58194 V 17.19259 Z m 0,1.679239 v 6.988078 a 8.3425444,3.1930082 0 0 0 -0.0015,0.0079 8.3425444,3.1930082 0 0 0 0.0015,0.01016 v 0.08777 c 0,0.107146 0.02454,0.208466 0.06113,0.304819 a 8.3425444,3.1930082 0 0 0 0.01259,0.03449 c 0.0138,0.03225 0.02953,0.06349 0.04702,0.09403 a 8.3425444,3.1930082 0 0 0 6.419974,2.59526 v 13.324992 c -0.56744,0.09197 -0.998297,0.580401 -0.998297,1.174607 v 6.195082 c 0,0.606413 0.448849,1.103049 1.033559,1.18009 0.131861,0.577536 0.644527,1.006917 1.263151,1.006917 h 1.002999 c 0.618625,0 1.131296,-0.429381 1.263152,-1.006917 0.58471,-0.07705 1.033558,-0.573677 1.033558,-1.18009 v -6.195082 c 0,-0.594206 -0.430857,-1.08264 -0.998297,-1.174607 V 28.995089 a 8.3425444,3.1930082 0 0 0 6.4474,-2.642274 8.3425444,3.1930082 0 0 0 0.0032,-0.0047 c 4.14e-4,-8.45e-4 3.73e-4,-0.0014 7.84e-4,-0.0024 a 8.3425444,3.1930082 0 0 0 0.01724,-0.04702 c 0.0437,-0.104279 0.07131,-0.215451 0.07131,-0.333027 v -0.04702 a 8.3425444,3.1930082 0 0 0 0.0024,-0.01259 v -0.004 a 8.3425444,3.1930082 0 0 0 -0.0024,-0.06033 v -6.969925 z m 8.35153,3.938337 a 2.0038428,2.0038428 0 0 1 1.992678,2.013833 v 0.0031 a 2.0038428,2.0038428 0 0 1 -2.015401,1.991108 2.0038428,2.0038428 0 0 1 -1.991893,-2.015401 2.0038428,2.0038428 0 0 1 2.014616,-1.992674 z" /></g></svg>
